Title                            : And Soon the Darkness
Year                             : 2010
Genre                            : Horror | Thriller
iMDB URL                         : http://www.imdb.com/title/tt1391034/

Complete name                    : And.Soon.the.Darkness.2010.BRRIP.720P.H264-ZEKTORM.mp4
Format                           : MPEG-4
Format profile                   : Base Media
Codec ID                         : isom
File size                        : 2.05 GiB
Duration                         : 1h 31mn
Overall bit rate                 : 3217 Kbps
Subtitles                        : English (Format: srt)

Video
ID                               : 1
Format                           : AVC
Format/Info                      : Advanced Video Codec
Format profile                   : High@L4.0
Format settings, CABAC           : Yes
Format settings, ReFrames        : 5 frames
Codec ID                         : avc1
Codec ID/Info                    : Advanced Video Coding
Duration                         : 1h 31mn
Bit rate mode                    : Variable
Bit rate                         : 2769 Kbps
Width                            : 1280 pixels
Height                           : 528 pixels
Display aspect ratio             : 2.424
Frame rate mode                  : Constant
Frame rate                       : 23.976 fps
Resolution                       : 24 bits
Colorimetry                      : 4:2:0
Scan type                        : Progressive
Bits/(Pixel*Frame)               : 0.171
Stream size                      : 1.77 GiB (86%)
Title                            : Video
Writing library                  : x264

Audio
ID                               : 2
Format                           : AAC
Format/Info                      : Advanced Audio Codec
Format version                   : Version 4
Format profile                   : LC
Format settings, SBR             : No
Codec ID                         : 40
Duration                         : 1h 31mn
Bit rate mode                    : Variable
Bit rate                         : 445 Kbps
Maximum bit rate                 : 507 Kbps
Channel(s)                       : 6 channels
Channel positions                : Front: L C R, Rear: L R, LFE
Sampling rate                    : 48.0 KHz
Resolution                       : 16 bits
Stream size                      : 290 MiB (14%)
Language                         : English


Screenshots:
 
http://img258.imageshack.us/img258/2946/snapasd1.png
 
http://img24.imageshack.us/img24/4408/snapasd2.png
 
http://img530.imageshack.us/img530/2127/snapasd3.png
 
http://img339.imageshack.us/img339/865/snapasd4.png
